<svg xmlns="http://www.w3.org/2000/svg" width="1600" height="900" viewBox="0 0 1600 900" preserveAspectRatio="xMidYMid slice">
  <defs>
    <linearGradient id="sky" x1="0" y1="0" x2="0" y2="1">
      <stop offset="0%" stop-color="#efe7ff"/>
      <stop offset="55%" stop-color="#d9cbff"/>
      <stop offset="100%" stop-color="#c6b5f6"/>
    </linearGradient>
    <linearGradient id="field" x1="0" y1="0" x2="1" y2="0">
      <stop offset="0%" stop-color="#b897ef"/>
      <stop offset="100%" stop-color="#9f80df"/>
    </linearGradient>
  </defs>
  <rect width="1600" height="900" fill="url(#sky)"/>
  <circle cx="1250" cy="170" r="95" fill="#fff5d8" opacity="0.8"/>
  <path d="M0 560 C220 470 390 640 620 560 C800 500 930 620 1110 560 C1280 500 1390 610 1600 540 L1600 900 L0 900 Z" fill="#b9a2ec"/>
  <path d="M0 630 C180 560 360 700 560 640 C760 580 920 710 1130 650 C1300 600 1430 700 1600 650 L1600 900 L0 900 Z" fill="url(#field)" opacity="0.95"/>
  <g stroke="#8a67cf" stroke-width="3" stroke-linecap="round" opacity="0.65">
    <line x1="90" y1="900" x2="90" y2="720"/>
    <line x1="170" y1="900" x2="170" y2="730"/>
    <line x1="260" y1="900" x2="260" y2="705"/>
    <line x1="350" y1="900" x2="350" y2="735"/>
    <line x1="440" y1="900" x2="440" y2="710"/>
    <line x1="540" y1="900" x2="540" y2="725"/>
    <line x1="640" y1="900" x2="640" y2="700"/>
    <line x1="740" y1="900" x2="740" y2="720"/>
    <line x1="840" y1="900" x2="840" y2="705"/>
    <line x1="950" y1="900" x2="950" y2="740"/>
    <line x1="1060" y1="900" x2="1060" y2="715"/>
    <line x1="1170" y1="900" x2="1170" y2="735"/>
    <line x1="1280" y1="900" x2="1280" y2="710"/>
    <line x1="1380" y1="900" x2="1380" y2="730"/>
    <line x1="1480" y1="900" x2="1480" y2="705"/>
  </g>
</svg>
