<svg xmlns="http://www.w3.org/2000/svg" width="1600" height="900" viewBox="0 0 1600 900" preserveAspectRatio="xMidYMid slice">
  <defs>
    <linearGradient id="night" x1="0" y1="0" x2="0" y2="1">
      <stop offset="0%" stop-color="#3f2d70"/>
      <stop offset="55%" stop-color="#5a3f9f"/>
      <stop offset="100%" stop-color="#7a57b4"/>
    </linearGradient>
    <radialGradient id="planet" cx="50%" cy="45%" r="55%">
      <stop offset="0%" stop-color="#dfc8ff"/>
      <stop offset="100%" stop-color="#b391e6"/>
    </radialGradient>
  </defs>
  <rect width="1600" height="900" fill="url(#night)"/>
  <g fill="#fff3b8" opacity="0.9">
    <circle cx="130" cy="100" r="3"/><circle cx="260" cy="180" r="2"/><circle cx="370" cy="80" r="3"/>
    <circle cx="520" cy="140" r="2"/><circle cx="650" cy="70" r="3"/><circle cx="780" cy="190" r="2"/>
    <circle cx="930" cy="110" r="3"/><circle cx="1080" cy="160" r="2"/><circle cx="1220" cy="90" r="3"/>
    <circle cx="1360" cy="170" r="2"/><circle cx="1490" cy="120" r="3"/><circle cx="230" cy="300" r="2"/>
    <circle cx="440" cy="260" r="3"/><circle cx="860" cy="280" r="2"/><circle cx="1180" cy="300" r="3"/>
  </g>
  <ellipse cx="800" cy="760" rx="350" ry="135" fill="url(#planet)"/>
  <path d="M520 760 C640 690 960 690 1080 760" fill="none" stroke="#8f6ec6" stroke-width="7"/>
  <g transform="translate(760 590)">
    <circle cx="20" cy="10" r="16" fill="#ffe1be"/>
    <path d="M3 28 L38 28 L52 95 L-10 95 Z" fill="#8dd8a8"/>
    <path d="M18 95 L12 145 L28 145 L23 95 Z" fill="#3a3656"/>
    <path d="M30 95 L34 145 L46 145 L42 95 Z" fill="#3a3656"/>
    <path d="M-6 45 L-40 70 L-26 82 L7 58 Z" fill="#ffd47c"/>
    <path d="M46 45 L82 62 L74 78 L42 61 Z" fill="#ffd47c"/>
  </g>
  <g opacity="0.6" stroke="#f8e3a2" stroke-width="2" fill="none">
    <path d="M300 520 C360 500 440 540 500 510"/>
    <path d="M1080 500 C1160 470 1240 520 1320 490"/>
  </g>
</svg>
